<svg 
 xmlns="http://www.w3.org/2000/svg"
 xmlns:xlink="http://www.w3.org/1999/xlink"
 width="20px" height="20px">
<path fill-rule="evenodd"  fill="rgb(255, 255, 255)"
 d="M7.328,20.000 C7.711,20.000 7.998,19.833 8.201,19.523 L19.773,1.490 C19.940,1.228 20.000,1.025 20.000,0.834 C20.000,0.334 19.665,-0.000 19.175,-0.000 C18.816,-0.000 18.613,0.131 18.410,0.453 L7.280,17.926 L1.650,10.894 C1.423,10.596 1.195,10.465 0.861,10.465 C0.359,10.465 -0.000,10.810 -0.000,11.311 C-0.000,11.514 0.084,11.740 0.263,11.967 L6.408,19.499 C6.671,19.845 6.946,20.000 7.328,20.000 Z"/>
</svg>