<svg 
 xmlns="http://www.w3.org/2000/svg"
 xmlns:xlink="http://www.w3.org/1999/xlink"
 width="34px" height="40px">
<defs>
<linearGradient id="PSgrad_0" x1="0%" x2="58.613%" y1="0%" y2="81.022%">
  <stop offset="0%" stop-color="rgb(255,74,125)" stop-opacity="1" />
  <stop offset="100%" stop-color="rgb(217,18,79)" stop-opacity="1" />
</linearGradient>

</defs>
<path fill-rule="evenodd"  fill="url(#PSgrad_0)"
 d="M32.111,8.949 L31.493,8.949 L31.493,32.528 L31.485,32.859 C31.315,36.593 28.276,39.564 24.556,39.564 L9.444,39.564 L9.118,39.556 C5.440,39.383 2.507,36.304 2.507,32.528 L2.507,8.949 L1.889,8.949 L1.730,8.939 C1.104,8.859 0.618,8.316 0.618,7.654 C0.618,6.937 1.189,6.358 1.889,6.358 L10.063,6.358 L10.063,1.913 L10.073,1.751 C10.151,1.111 10.687,0.618 11.333,0.618 L22.667,0.618 L22.826,0.628 C23.451,0.708 23.937,1.251 23.937,1.913 L23.937,6.358 L32.111,6.358 L32.270,6.368 C32.896,6.448 33.382,6.992 33.382,7.654 C33.382,8.371 32.811,8.949 32.111,8.949 ZM21.396,3.209 L12.604,3.209 L12.604,6.358 L21.396,6.358 L21.396,3.209 ZM28.951,8.949 L5.048,8.949 L5.048,32.528 L5.056,32.789 C5.189,35.121 7.102,36.973 9.444,36.973 L24.556,36.973 L24.814,36.966 C27.123,36.830 28.951,34.894 28.951,32.528 L28.951,8.949 ZM20.778,31.910 C20.078,31.910 19.507,31.332 19.507,30.615 L19.507,15.307 L19.517,15.145 C19.596,14.505 20.132,14.012 20.778,14.012 C21.478,14.012 22.048,14.590 22.048,15.307 L22.048,30.615 L22.038,30.778 C21.960,31.417 21.424,31.910 20.778,31.910 ZM13.222,31.910 C12.522,31.910 11.951,31.332 11.951,30.615 L11.951,15.307 L11.961,15.145 C12.040,14.505 12.576,14.012 13.222,14.012 C13.922,14.012 14.493,14.590 14.493,15.307 L14.493,30.615 L14.483,30.778 C14.404,31.417 13.868,31.910 13.222,31.910 Z"/>
</svg>